<?xml version="1.0" encoding="utf-8"?>
<!-- Generator: Adobe Illustrator 27.8.1, SVG Export Plug-In . SVG Version: 6.00 Build 0)  -->
<svg version="1.1" id="Layer_1" xmlns="http://www.w3.org/2000/svg" xmlns:xlink="http://www.w3.org/1999/xlink" x="0px" y="0px"
	 viewBox="0 0 32 32" style="enable-background:new 0 0 32 32;" xml:space="preserve">
<style type="text/css">
	.st0{fill:#7EBCC6;}
</style>
<g id="Layer_5_copy">
	<g>
		<path class="st0" d="M24.7,14.3c0,0,0,0,0-0.1c0.4-0.9,1.2-1.1,2.1-1c0.6,0.1,1.3,0.2,2.6-0.6c0.4-0.2,1.3-0.4,1.8-0.2
			c0.3,0.2,0.5,0.4,0.6,0.9c0.1,0.5,0,1.1-0.3,1.5c-0.3,0.4-0.5,0.7-1.2,1.1c-1.1,0.8-2.4,1-3.6,0.6c-0.6-0.2-1.2-0.4-1.7-1
			C25,15.5,24.5,15,24.7,14.3L24.7,14.3L24.7,14.3z"/>
		<path class="st0" d="M20.2,22C20.2,22,20.2,22,20.2,22c-0.7,0.8-0.5,1.7,0,2.4c0.4,0.5,0.7,1.1,0.7,2.6c0,0.5,0.2,1.4,0.6,1.6
			c0.3,0.2,0.6,0.3,1,0.1c0.5-0.1,1-0.5,1.2-0.9c0.2-0.4,0.4-0.8,0.5-1.6c0.2-1.3-0.2-2.6-1.1-3.5c-0.4-0.4-0.9-0.9-1.7-1.1
			C21.4,21.6,20.8,21.4,20.2,22L20.2,22L20.2,22z"/>
		<path class="st0" d="M27.2,18.9c0.3,0.1,0.7,0.2,0.9,0.3c1.3,0.2,1.9,1.8,1.1,3.1l0,0c-0.8,1.3-2.6,1.3-3.3,0.1
			c-0.1-0.2-0.3-0.4-0.4-0.6l-0.1-0.2c-0.4-0.5-1-1-1.6-1.3l0,0c-0.1-0.1-0.1-0.3,0-0.4l0,0c0.5-0.4,0.9-1,1-1.6l0-0.1
			c0-0.2,0.2-0.3,0.3-0.2l0,0C25.8,18.3,26.5,18.6,27.2,18.9L27.2,18.9L27.2,18.9L27.2,18.9z"/>
		<path class="st0" d="M24.4,9.1c-1.2,0.3-1.6-0.5-1.8-1.2c-0.2-0.8-0.6-1.6-1.1-2.2c-1.7-1.8-3.7-2.2-4.4-2.3c-0.2,0-0.3,0-0.5-0.1
			c-0.3,0-0.6-0.1-0.9-0.1c-1.7,0-3.5,0.7-4.9,1.4c-0.1-0.4-0.4-0.8-0.7-1C9.6,3.5,8.7,3.4,7.3,4.5c-0.9,0.8-1.9,2-2.8,3.4
			C2,7.8,0.4,8.2,0.2,9.2C0,10.1,0.9,11,2.6,11.8c-0.5,1.3-0.7,2.5-0.7,3.4c0,1.5,0.5,2.1,0.9,2.3c0.2,0.1,0.4,0.2,0.7,0.2
			c0.5,0,1.2-0.2,2.1-1c0.1,0,0.1-0.1,0.2-0.2c0.1,0.5,0.2,1,0.3,1.4c0.4,1.4,1.1,2.6,2.1,3.5c-0.3,1.3-0.3,2.5,0.4,2.8
			c0.1,0.1,0.3,0.1,0.5,0.1c0.7,0,1.4-0.6,2.2-1.4c0.7,0.1,1.4,0.1,2.1-0.1c0.7-0.2,1.5-0.2,1.8,1.1c0.4,1.8,2.2,1.2,2.8,0.3
			c0.2-0.3,0.4-0.7,0.5-1.2c0.1-0.4,0.1-0.8,0.1-1.2c0-0.5,0.1-1.4,1.1-1.5c0.2,0,0.5,0,0.7-0.1c1.3-0.3,4.5-1.4,2.9-5.4
			c-0.4-1.1,0.3-1.6,0.7-1.8c0.3-0.2,0.6-0.4,0.9-0.6c0.4-0.4,0.7-0.7,0.9-1C26.5,10.5,26.2,8.7,24.4,9.1L24.4,9.1z M3.2,16.9
			c-0.7-0.4-0.8-2.2,0.3-5.1l0.1-0.3l-0.3-0.1c-1.7-0.8-2.4-1.5-2.4-1.9c0.1-0.2,0.4-0.5,1-0.6c0.5-0.1,1-0.2,1.7-0.2
			c0.3,0,0.7,0,1.1,0l0.2,0l0.1-0.2C6.9,5.4,8.9,4,9.7,4.4c0.7,0.3,0.8,2.1-0.2,4.9L9.4,9.7l0.3,0.1c2.1,0.8,3.1,1.7,3,2.1v0
			c-0.1,0.6-1.9,1-4.5,0.6l-0.2,0l-0.1,0.2C6,15.8,3.9,17.3,3.2,16.9L3.2,16.9z M8.9,23.7c-0.3-0.2-0.5-1.2,0.2-3.1l0.1-0.3
			l-0.3-0.1c-1.1-0.5-1.4-0.9-1.4-1.1c0-0.2,0.5-0.4,1.6-0.4c0.2,0,0.4,0,0.7,0l0.2,0l0.1-0.2c1.2-2,2.4-2.7,2.8-2.5
			c0.4,0.2,0.4,1.4-0.2,3l-0.1,0.3l0.3,0.1c1.4,0.5,1.8,1.1,1.8,1.2c0,0.2-0.9,0.5-2.7,0.3l-0.2,0l-0.1,0.2
			C10.5,23.1,9.3,23.9,8.9,23.7L8.9,23.7z"/>
	</g>
</g>
</svg>
