<?xml version="1.0" encoding="UTF-8"?>
<svg id="Layer_1" data-name="Layer 1" xmlns="http://www.w3.org/2000/svg" viewBox="0 0 485.35 127.8">
  <defs>
    <style>
      .cls-1 {
        fill: #7ebcc6;
        stroke-width: 0px;
      }
    </style>
  </defs>
  <g id="Layer_5_copy" data-name="Layer 5 copy">
    <g>
      <path class="cls-1" d="m449.64,55.3s.07-.2.24-.55c2.01-4.36,6.03-5.69,10.33-4.81,2.9.61,6.44.82,13.02-2.9,2.15-1.23,6.68-2.25,8.79-.95,1.3.82,2.49,2.11,3.03,4.29.68,2.56.14,5.32-1.26,7.43-1.3,1.94-2.73,3.41-5.86,5.76-5.32,3.99-12.1,4.94-18.23,2.97-2.83-.92-6.17-1.91-8.62-4.98-.03,0-2.79-2.49-1.43-6.27h0Z"/>
      <path class="cls-1" d="m426.91,93.81s-.17.17-.37.48c-3,3.78-2.35,7.98.41,11.38,1.87,2.32,3.65,5.39,3.34,12.92-.1,2.45,1.02,6.99,3.14,8.25,1.3.78,3.03,1.26,5.21.75,2.56-.58,4.81-2.28,6.07-4.5,1.16-2.01,1.81-3.95,2.49-7.84,1.16-6.54-1.09-13.02-5.66-17.59-2.08-2.11-4.5-4.64-8.35-5.45,0,0-3.48-1.3-6.27,1.6h0Z"/>
      <path class="cls-1" d="m462.05,78.37c1.26.41,3.37,1.02,4.7,1.26,6.61,1.16,9.68,9.17,5.45,15.44h0c-4.23,6.27-12.82,6.41-16.36.72-.65-1.02-1.3-2.01-2.04-2.93l-.75-.92c-2.22-2.73-4.91-4.98-7.91-6.75h0c-.65-.37-.68-1.36,0-1.87h0c2.59-2.01,4.33-5.01,4.81-8.21l.07-.51c.14-.82,1.02-1.33,1.7-.92h0c3.17,1.91,6.54,3.44,10.05,4.64l.27.07h0Z"/>
      <path class="cls-1" d="m447.87,29.26c-6.24,1.43-8.18-2.45-9-5.83-.99-4.09-2.86-7.91-5.66-11.01-8.32-9.2-18.58-11.25-21.98-11.69-.85-.1-1.67-.24-2.52-.37-1.43-.25-2.91-.36-4.41-.36-8.47,0-17.77,3.56-24.53,7.18-.71-2.16-1.92-3.83-3.76-4.81-2.46-1.3-6.84-1.64-13.74,4.09-4.64,3.87-9.57,9.84-13.94,16.92-12.64-.84-20.78,1.59-21.86,6.56-.93,4.26,3.44,8.85,12.36,13.02-2.27,6.4-3.54,12.29-3.68,17.11-.22,7.46,2.36,10.41,4.55,11.57.86.45,1.96.79,3.31.79,2.52,0,5.94-1.17,10.43-4.91.29-.25.59-.5.88-.76.45,2.61.99,4.99,1.52,7.07,1.78,6.81,5.54,12.82,10.64,17.34-1.58,6.27-1.61,12.31,2.12,14.26.73.39,1.51.56,2.32.56,3.3,0,7.2-2.95,10.81-7.16,3.48.65,7.07.48,10.5-.3,3.37-.78,7.74-.82,9.24,5.42,2.22,9.07,10.94,6.1,14.28,1.4.99-1.4,1.84-3.31,2.45-5.83.48-1.98.68-3.99.72-6.03.03-2.39.72-7.19,5.52-7.33,1.23-.04,2.42-.14,3.61-.38,6.54-1.33,22.7-6.78,14.69-27.13-2.11-5.35,1.3-7.91,3.58-9.1,1.64-.85,3.2-1.81,4.6-2.97,2.25-1.84,3.72-3.58,4.57-5.21,2.76-5.07,1.47-14.21-7.63-12.13h0Zm-106.42,39.07c-3.39-1.79-3.97-11.19,1.49-25.7l.63-1.67-1.63-.71c-8.71-3.79-12.22-7.58-11.8-9.51.25-1.17,2.17-2.27,5.12-2.96,2.34-.54,5.21-.81,8.47-.81,1.72,0,3.55.07,5.46.23l1.16.09.6-.99c9.3-15.42,19.35-22.71,23.32-20.61,3.27,1.72,3.93,10.76-1.12,24.7l-.63,1.74,1.73.65c10.35,3.91,15.4,8.46,14.89,10.76h0c-.61,2.78-9.38,4.8-22.49,3.22l-1.2-.15-.63,1.04c-9.34,15.46-19.39,22.77-23.36,20.68h0Zm28.75,34.09c-1.61-.84-2.3-6.18,1.18-15.44l.57-1.51-1.48-.65c-5.69-2.48-7.24-4.69-7.09-5.37.16-.76,2.76-1.93,8.06-1.93,1.01,0,2.12.04,3.33.14l1.05.09.55-.9c6.02-9.94,11.96-13.78,13.94-12.73,1.84.96,1.98,6.78-.98,14.84l-.58,1.59,1.58.6c7.13,2.68,9.16,5.32,8.99,6.12-.23,1.06-4.56,2.67-13.5,1.6l-1.09-.13-.57.94c-6.01,9.96-11.95,13.81-13.94,12.76h0Z"/>
    </g>
  </g>
  <g>
    <path class="cls-1" d="m0,97.7v-37.44c0-10,5.84-14.32,19.6-14.32h10c3.52,0,5.6,2,5.6,5.36s-2.08,5.2-5.6,5.2h-10.56c-5.36,0-7.52,2-7.52,6.8,0,1.76-.24,4.24-.64,7.44,1.84-1.52,4.8-2.48,7.52-2.48h7.92c2.96,0,4.72,1.92,4.72,5.12s-1.84,5.28-4.72,5.28h-8.56c-4.96,0-6.24,1.52-6.24,7.44v5.28h18.08c3.92,0,5.6,1.6,5.6,5.44s-1.52,5.12-5.6,5.12H3.6c-2.08,0-3.6-1.76-3.6-4.24Z"/>
    <path class="cls-1" d="m40.48,97.14v-19.2c0-10.88,5.36-16.64,15.04-16.64,6.8,0,11.04,2.24,13.44,7.12,2.4-4.88,6.64-7.12,13.44-7.12,9.68,0,15.04,5.76,15.04,16.64v19.2c0,3.68-1.84,5.44-5.76,5.44s-5.76-1.76-5.76-5.44v-18.56c0-5.44-1.76-7.68-5.6-7.68s-5.76,2.48-5.76,7.68v18.24c0,3.68-1.84,5.44-5.6,5.44s-5.6-1.76-5.6-5.44v-18.24c0-5.2-1.76-7.68-5.76-7.68s-5.6,2.48-5.6,7.68v18.56c0,3.68-1.84,5.44-5.76,5.44s-5.76-1.76-5.76-5.44Z"/>
    <path class="cls-1" d="m106,97.14v-19.2c0-10.88,5.36-16.64,15.04-16.64,6.8,0,11.04,2.24,13.44,7.12,2.4-4.88,6.64-7.12,13.44-7.12,9.68,0,15.04,5.76,15.04,16.64v19.2c0,3.68-1.84,5.44-5.76,5.44s-5.76-1.76-5.76-5.44v-18.56c0-5.44-1.76-7.68-5.6-7.68s-5.76,2.48-5.76,7.68v18.24c0,3.68-1.84,5.44-5.6,5.44s-5.6-1.76-5.6-5.44v-18.24c0-5.2-1.76-7.68-5.76-7.68s-5.6,2.48-5.6,7.68v18.56c0,3.68-1.84,5.44-5.76,5.44s-5.76-1.76-5.76-5.44Z"/>
    <path class="cls-1" d="m169.2,89.22c0-9.28,8-13.52,23.12-12.24-.72-4.88-3.2-6.32-6.56-6.32-4.08,0-5.36.88-8.48.88-2.88,0-4.72-.72-4.72-3.84,0-4.4,3.6-6.4,11.84-6.4,13.04,0,19.2,8,19.2,20.4,0,14.32-4.56,20.88-17.44,20.88-10.64,0-16.96-5.44-16.96-13.36Zm17.68,4.56c4,0,4.96-1.52,5.52-10.08-.56.56-1.44.72-2.32.72-7.04,0-9.36,1.04-9.36,4.8,0,2.96,2.08,4.56,6.16,4.56Z"/>
    <path class="cls-1" d="m229.2,97.86v-35.68c0-11.12,6.16-17.12,17.6-17.12,14.88,0,22.4,9.76,22.4,29.04s-7.36,27.84-22.8,27.84h-13.52c-2.08,0-3.68-1.76-3.68-4.08Zm17.2-5.36c7.92,0,11.28-5.76,11.28-19.44,0-12.96-2.96-18-10.72-18-4.24,0-6.24,1.44-6.24,4.56v32.88h5.68Z"/>
    <path class="cls-1" d="m275.68,81.94c0-14.56,7.04-20.64,18.48-20.64s18.48,6.08,18.48,20.64-7.04,20.64-18.48,20.64-18.48-6.08-18.48-20.64Zm25.44,0c0-8.8-2.56-11.04-6.96-11.04s-6.96,2.24-6.96,11.04,2.56,11.04,6.96,11.04,6.96-2.24,6.96-11.04Z"/>
  </g>
</svg>