<?xml version="1.0" encoding="UTF-8"?>
<svg id="Layer_3" data-name="Layer 3" xmlns="http://www.w3.org/2000/svg" viewBox="0 0 466.5 374.97">
  <defs>
    <style>
      .cls-1 {
        fill: #7dbcc6;
        stroke-width: 0px;
      }
    </style>
  </defs>
  <g id="Layer_5_copy" data-name="Layer 5 copy">
    <g>
      <path class="cls-1" d="m361.74,162.25s.2-.6.7-1.6c5.9-12.8,17.7-16.7,30.3-14.1,8.5,1.8,18.9,2.4,38.2-8.5,6.3-3.6,19.6-6.6,25.8-2.8,3.8,2.4,7.3,6.2,8.9,12.6,2,7.5.4,15.6-3.7,21.8-3.8,5.7-8,10-17.2,16.9-15.6,11.7-35.5,14.5-53.5,8.7-8.3-2.7-18.1-5.6-25.3-14.6-.1,0-8.2-7.3-4.2-18.4h0Z"/>
      <path class="cls-1" d="m295.04,275.25s-.5.5-1.1,1.4c-8.8,11.1-6.9,23.4,1.2,33.4,5.5,6.8,10.7,15.8,9.8,37.9-.3,7.2,3,20.5,9.2,24.2,3.8,2.3,8.9,3.7,15.3,2.2,7.5-1.7,14.1-6.7,17.8-13.2,3.4-5.9,5.3-11.6,7.3-23,3.4-19.2-3.2-38.2-16.6-51.6-6.1-6.2-13.2-13.6-24.5-16,0,0-10.2-3.8-18.4,4.7h0Z"/>
      <path class="cls-1" d="m398.14,229.95c3.7,1.2,9.9,3,13.8,3.7,19.4,3.4,28.4,26.9,16,45.3h0c-12.4,18.4-37.6,18.8-48,2.1-1.9-3-3.8-5.9-6-8.6l-2.2-2.7c-6.5-8-14.4-14.6-23.2-19.8h0c-1.9-1.1-2-4,0-5.5h0c7.6-5.9,12.7-14.7,14.1-24.1l.2-1.5c.4-2.4,3-3.9,5-2.7h0c9.3,5.6,19.2,10.1,29.5,13.6l.8.2h0Z"/>
      <path class="cls-1" d="m356.54,85.85c-18.3,4.2-24-7.2-26.4-17.1-2.9-12-8.4-23.2-16.6-32.3C289.14,9.45,259.04,3.45,249.04,2.15c-2.5-.3-4.9-.7-7.4-1.1-4.2-.72-8.54-1.05-12.95-1.05-24.84,0-52.15,10.44-71.96,21.08-2.08-6.33-5.63-11.25-11.03-14.1-7.23-3.81-20.08-4.81-40.3,12.01-13.62,11.34-28.07,28.88-40.91,49.63C27.4,66.17,3.52,73.29.36,87.87c-2.74,12.5,10.1,25.97,36.26,38.19-6.67,18.79-10.39,36.07-10.81,50.21-.64,21.9,6.91,30.55,13.36,33.94,2.53,1.33,5.74,2.32,9.71,2.32,7.4,0,17.44-3.42,30.6-14.4.86-.72,1.72-1.46,2.59-2.23,1.33,7.65,2.9,14.63,4.47,20.75,5.23,19.99,16.25,37.62,31.23,50.89-4.64,18.41-4.73,36.12,6.23,41.83,2.14,1.13,4.43,1.65,6.82,1.65,9.69,0,21.13-8.65,31.71-21,10.22,1.91,20.73,1.42,30.81-.87,9.9-2.3,22.7-2.4,27.1,15.9,6.5,26.6,32.1,17.9,41.9,4.1,2.9-4.1,5.4-9.7,7.2-17.1,1.4-5.8,2-11.7,2.1-17.7.1-7,2.1-21.11,16.2-21.5,3.6-.11,7.1-.4,10.6-1.11,19.2-3.89,66.6-19.89,43.1-79.6-6.2-15.7,3.8-23.2,10.5-26.7,4.8-2.5,9.4-5.3,13.5-8.7,6.6-5.39,10.9-10.5,13.4-15.3,8.1-14.89,4.3-41.7-22.4-35.59ZM44.3,200.48c-9.95-5.24-11.64-32.82,4.38-75.4l1.84-4.89-4.79-2.09c-25.55-11.12-35.86-22.25-34.62-27.89.74-3.43,6.36-6.67,15.01-8.67,6.86-1.58,15.29-2.38,24.85-2.38,5.05,0,10.41.22,16.03.67l3.39.27,1.76-2.91c27.28-45.24,56.76-66.62,68.42-60.48,9.6,5.06,11.54,31.57-3.3,72.46l-1.86,5.1,5.08,1.92c30.38,11.47,45.17,24.82,43.68,31.56v.02c-1.8,8.14-27.52,14.06-65.98,9.42l-3.52-.43-1.84,3.04c-27.39,45.35-56.9,66.8-68.53,60.68Zm84.35,100.03c-4.71-2.45-6.74-18.13,3.47-45.31l1.66-4.44-4.35-1.9c-16.7-7.28-21.23-13.77-20.81-15.77.48-2.22,8.09-5.67,23.64-5.67,2.96,0,6.22.12,9.78.41l3.07.25,1.6-2.65c17.65-29.15,35.08-40.43,40.91-37.35,5.41,2.82,5.81,19.88-2.88,43.54l-1.71,4.66,4.65,1.75c20.93,7.86,26.87,15.62,26.37,17.96-.68,3.1-13.37,7.83-39.62,4.69l-3.21-.38-1.67,2.76c-17.62,29.23-35.06,40.53-40.9,37.45Z"/>
    </g>
  </g>
</svg>