<svg version="1.1" id="Layer_5" xmlns="http://www.w3.org/2000/svg" xmlns:xlink="http://www.w3.org/1999/xlink" x="0px" y="0px"
	 viewBox="0 0 733.5 462.9" style="enable-background:new 0 0 733.5 462.9;" xml:space="preserve">
<style type="text/css">
	.st0{fill:#7DBCC6;}
</style>
<g>
	<path class="st0" d="M346.3,206.7c25.7,0,48-5.3,51.2-20.1c4.2-19.2-27-35-45.5-42.6c11.3-33.4,15.7-70.7-4.1-81.1
		c-7.4-3.8-20.4-4.9-40.8,12.1c-13.6,11.3-28,28.8-40.9,49.5c-37.2-2.4-61.1,4.9-64.3,19.7c-1.6,7.5,1.1,22.2,36.2,38.5
		c-6.6,18.6-10.3,35.8-10.7,49.9c-0.6,22.2,7.1,30.9,13.6,34.4c2.6,1.3,5.9,2.3,9.9,2.3c7.5,0,17.7-3.5,31-14.5
		c13.6-11.3,28-28.8,40.8-49.5C330.6,206.2,338.6,206.7,346.3,206.7z M316.5,192.6l-2,3.3c-27.2,45.1-56.4,66.5-67.9,60.5
		c-5-2.6-7.6-11.1-7.2-23.4c0.4-13.9,4.6-32.1,11.9-51.3l2-5.4l-5.2-2.3c-27-11.7-35.4-22.7-34.4-27.3c1.1-4.9,14-10.7,39.5-10.7
		c4.8,0,10.1,0.2,15.8,0.7l3.7,0.3l1.9-3.2c27.2-45,56.3-66.3,67.8-60.3c9.4,4.9,11.2,31.2-3.6,71.8l-2,5.6l5.5,2.1
		c14.5,5.5,26.4,11.7,34.3,17.9c6.4,5.1,9.8,9.9,9.2,13c-1.4,6.6-23.2,14.1-65.4,9L316.5,192.6z"/>
	<path class="st0" d="M398.9,286.3c8.6-26.5,7.1-45.5-4.3-51.5c-15.3-8-37.5,13-53.4,38.3c-13.7-0.7-38.3,0-41.3,14.2
		C298,296,305.8,305,322,313c-7.5,22.2-10.1,46.5,3.6,53.7c2.3,1.2,4.7,1.7,7.2,1.7c14.5,0,32.6-18.5,46.3-40
		c11.1,1.1,21.1,0.9,29-0.5c13.8-2.5,17.9-8.5,18.9-13.1l0,0C429,305,418.8,294.7,398.9,286.3z M415.1,312.2c-0.1,0.4-2,2.5-9.3,3.9
		c-7.5,1.4-17.9,1.4-29.2,0l-3.8-0.5l-2,3.3c-17.1,28.3-34.3,39.9-39.6,37.1c-3.3-1.7-6.9-15.2,4-44.1l2-5.3l-5.2-2.3
		c-17.5-7.6-20.4-13.8-20.3-14.6c0.3-1.2,6.7-4.9,22.6-4.9c2.9,0,6.2,0.1,9.7,0.4l3.7,0.3l1.9-3.2c17-28.2,34.2-39.8,39.5-37
		c4.1,2.1,5.9,17.1-3.3,42.3l-2,5.6l5.5,2.1C410,303.1,415.4,310.7,415.1,312.2z"/>
</g>
</svg>
