<?xml version="1.0" encoding="utf-8"?>
<!-- Generator: Adobe Illustrator 27.8.1, SVG Export Plug-In . SVG Version: 6.00 Build 0)  -->
<svg version="1.1" id="Layer_1" xmlns="http://www.w3.org/2000/svg" xmlns:xlink="http://www.w3.org/1999/xlink" x="0px" y="0px"
	 viewBox="0 0 56.7 56.7" style="enable-background:new 0 0 56.7 56.7;" xml:space="preserve">
<style type="text/css">
	.st0{fill:#071772;}
</style>
<path class="st0" d="M28.4,40.6c-1.8,0-3.5-0.6-5-1.9L1.2,20.3v25.8c0,3,2.3,5.5,5.1,5.5h44.2c2.8,0,5.1-2.4,5.1-5.5V20.3L33.4,38.8
	C31.9,40,30.1,40.6,28.4,40.6z M2.9,17.1l22.5,18.8c1.7,1.4,4.1,1.4,5.8,0l22.5-18.8c1-0.9,1.7-2.3,1.7-3.8c0-3-2.3-5.5-5.1-5.5H6.3
	c-2.8,0-5.1,2.4-5.1,5.5C1.2,14.8,1.8,16.2,2.9,17.1z"/>
</svg>
