<?xml version="1.0" encoding="utf-8"?>
<!-- Generator: Adobe Illustrator 27.8.1, SVG Export Plug-In . SVG Version: 6.00 Build 0)  -->
<svg version="1.1" id="Layer_1" xmlns="http://www.w3.org/2000/svg" xmlns:xlink="http://www.w3.org/1999/xlink" x="0px" y="0px"
	 viewBox="0 0 56.7 56.7" style="enable-background:new 0 0 56.7 56.7;" xml:space="preserve">
<style type="text/css">
	.st0{fill:#27389C;}
</style>
<g>
	<path class="st0" d="M28.4,15.5c-7,0-12.8,5.7-12.8,12.8S21.2,41,28.4,41s12.8-5.8,12.8-12.8S35.4,15.5,28.4,15.5z M28.4,36.5
		c-4.5,0-8.2-3.7-8.2-8.2s3.7-8.2,8.2-8.2s8.2,3.7,8.2,8.2S32.9,36.5,28.4,36.5z"/>
	<circle class="st0" cx="41.7" cy="15.1" r="2.9"/>
	<path class="st0" d="M49.2,7.6c-2.6-2.7-6.3-4.1-10.5-4.1H18C9.4,3.5,3.6,9.4,3.6,18v20.5c0,4.3,1.4,8,4.2,10.7
		c2.7,2.6,6.3,3.9,10.4,3.9h20.4c4.3,0,7.9-1.4,10.5-3.9c2.7-2.6,4.1-6.3,4.1-10.6V18C53.2,13.9,51.8,10.2,49.2,7.6z M48.8,38.7
		c0,3.1-1.1,5.6-2.9,7.3s-4.3,2.6-7.3,2.6H18.2c-3,0-5.5-0.9-7.3-2.6c-1.8-1.8-2.7-4.3-2.7-7.4V18c0-3,0.9-5.5,2.7-7.3
		c1.7-1.7,4.3-2.6,7.3-2.6h20.6c3,0,5.5,0.9,7.3,2.7c1.7,1.8,2.7,4.3,2.7,7.2V38.7L48.8,38.7z"/>
</g>
</svg>
